<?xml version="1.0" standalone="no"?>
<svg viewBox="0 0 200 200" xmlns="http://www.w3.org/2000/svg">
  <path fill="#8A3FFC" d="M44.1,-75.7C56.6,-69.1,65.8,-56.2,68.4,-42.6C71,-28.9,67,-14.4,68.4,0.8C69.8,16.1,76.6,32.1,72.7,43.5C68.8,54.9,54.1,61.6,40.2,65.2C26.3,68.7,13.2,69.1,2.3,65.1C-8.5,61.1,-17,52.7,-29.7,48.4C-42.4,44.1,-59.2,44,-68.2,36.6C-77.1,29.3,-78.2,14.6,-76.5,1C-74.8,-12.7,-70.3,-25.3,-64.5,-38.1C-58.7,-51,-51.6,-64,-40.6,-71.4C-29.6,-78.9,-14.8,-80.7,0.5,-81.6C15.8,-82.4,31.6,-82.2,44.1,-75.7Z" transform="translate(100 100)" />
</svg>
