<?xml version="1.0" standalone="no"?>
<svg viewBox="0 0 200 200" xmlns="http://www.w3.org/2000/svg">
  <path fill="#8A3FFC" d="M43.7,-73.5C56.5,-68.4,66.4,-56.2,69.4,-42.8C72.3,-29.4,68.4,-14.7,69.7,0.8C71.1,16.3,77.9,32.6,71.8,40.6C65.7,48.7,46.8,48.5,32.7,54.9C18.6,61.4,9.3,74.5,-1.8,77.5C-12.8,80.6,-25.6,73.6,-39.9,67.2C-54.2,60.8,-69.9,55.1,-75.4,44.1C-81,33,-76.3,16.5,-75.5,0.5C-74.7,-15.6,-77.8,-31.1,-71.6,-41.1C-65.5,-51.2,-50.1,-55.7,-36.6,-60.3C-23.2,-64.9,-11.6,-69.7,2,-73.1C15.5,-76.5,31,-78.5,43.7,-73.5Z" transform="translate(100 100)" />
</svg>
