<?xml version="1.0" standalone="no"?>
<svg viewBox="0 0 200 200" xmlns="http://www.w3.org/2000/svg">
  <path fill="#8A3FFC" d="M39,-62.7C52.8,-59.5,67.8,-53.7,73.6,-42.8C79.5,-31.9,76.2,-15.9,75.3,-0.6C74.3,14.8,75.6,29.6,69.4,39.9C63.2,50.2,49.5,56,36.6,62.2C23.8,68.4,11.9,75,-0.8,76.4C-13.6,77.9,-27.2,74.3,-35.4,65.4C-43.6,56.6,-46.4,42.5,-54.4,30.7C-62.3,19,-75.4,9.5,-78.7,-1.9C-81.9,-13.2,-75.3,-26.5,-67.7,-38.8C-60.1,-51.2,-51.5,-62.7,-40,-67.2C-28.6,-71.6,-14.3,-69,-0.8,-67.6C12.6,-66.1,25.2,-65.8,39,-62.7Z" transform="translate(100 100)" />
</svg>
