<?xml version="1.0" standalone="no"?>
<svg viewBox="0 0 200 200" xmlns="http://www.w3.org/2000/svg">
  <path fill="#8A3FFC" d="M44.8,-69.3C55.5,-62.8,59.8,-46,65.5,-30.7C71.2,-15.4,78.4,-1.5,79.3,13.3C80.1,28.2,74.6,44,64.9,57.3C55.1,70.6,41.1,81.3,25.2,86.2C9.3,91.2,-8.5,90.3,-25.3,85.7C-42.2,81,-58,72.5,-65.4,59.3C-72.7,46.1,-71.5,28.1,-70.1,12.4C-68.7,-3.3,-67.2,-16.6,-64.1,-31.8C-61.1,-47.1,-56.7,-64.1,-45.7,-70.5C-34.8,-76.9,-17.4,-72.6,-0.2,-72.3C17.1,-72,34.1,-75.8,44.8,-69.3Z" transform="translate(100 100)" />
</svg>
