<?xml version="1.0" standalone="no"?>
<svg viewBox="0 0 200 200" xmlns="http://www.w3.org/2000/svg">
  <path fill="#8A3FFC" d="M30.5,-54.2C39.1,-47.8,45.5,-38.9,52.6,-29.4C59.6,-20,67.3,-10,71.2,2.2C75,14.5,75.1,28.9,67.1,36.7C59,44.4,42.9,45.4,30.4,51.9C17.9,58.4,8.9,70.3,-3,75.5C-14.9,80.7,-29.9,79.2,-41.3,72.1C-52.7,64.9,-60.6,52.2,-69.1,39.3C-77.6,26.3,-86.8,13.2,-84.4,1.4C-82.1,-10.5,-68.2,-20.9,-59,-32.7C-49.8,-44.4,-45.2,-57.4,-36.2,-63.7C-27.1,-69.9,-13.6,-69.4,-1.3,-67.1C10.9,-64.8,21.8,-60.7,30.5,-54.2Z" transform="translate(100 100)" />
</svg>
