<?xml version="1.0" standalone="no"?>
<svg viewBox="0 0 200 200" xmlns="http://www.w3.org/2000/svg">
  <path fill="#8A3FFC" d="M34.1,-61.9C43.1,-53.9,48.5,-42.5,55.4,-31.6C62.2,-20.7,70.6,-10.4,71.9,0.8C73.3,11.9,67.6,23.9,62.1,37C56.5,50.2,51,64.5,40.7,66.9C30.4,69.3,15.2,59.8,2.4,55.7C-10.4,51.6,-20.8,52.9,-33.5,51.8C-46.1,50.7,-61,47.3,-69,38.2C-77,29.2,-78,14.6,-76.6,0.8C-75.2,-12.9,-71.2,-25.9,-64.5,-37.1C-57.8,-48.4,-48.4,-58,-37.2,-64.7C-26,-71.3,-13,-75,-0.2,-74.6C12.6,-74.2,25.2,-69.8,34.1,-61.9Z" transform="translate(100 100)" />
</svg>
