<?xml version="1.0" standalone="no"?>
<svg viewBox="0 0 200 200" xmlns="http://www.w3.org/2000/svg">
  <path fill="#8A3FFC" d="M38.2,-59.5C49.6,-52.1,59,-41.7,63.4,-29.7C67.9,-17.6,67.4,-4,66,9.9C64.7,23.9,62.5,38.1,55.7,51C48.8,63.9,37.2,75.5,23.3,79.9C9.4,84.2,-6.8,81.3,-23.2,77.3C-39.5,73.2,-56,68,-65.9,56.9C-75.8,45.8,-79.1,28.8,-80,12.5C-80.9,-3.9,-79.3,-19.7,-74.4,-35.4C-69.4,-51.1,-61.1,-66.7,-48.2,-73.3C-35.2,-80,-17.6,-77.8,-2.1,-74.5C13.4,-71.3,26.8,-66.9,38.2,-59.5Z" transform="translate(100 100)" />
</svg>
